<svg class="graphsvg" xmlns="http://www.w3.org/2000/svg" viewBox="0 0 430 150">
  <g stroke = "#8c8c8c" stroke-width="0.5" stroke-dasharray="1, 3">
    <line class="line" x1="30" y1="10" x2="430" y2="10" />
    <line class="line" x1="30" y1="20" x2="430" y2="20" />
    <line class="line" x1="30" y1="30" x2="430" y2="30" />
    <line class="line" x1="30" y1="40" x2="430" y2="40" />
    <line class="line" x1="30" y1="50" x2="430" y2="50" />
    <line class="line" x1="30" y1="60" x2="430" y2="60" />
    <line class="line" x1="30" y1="70" x2="430" y2="70" />
    <line class="line" x1="30" y1="80" x2="430" y2="80" />
    <line class="line" x1="30" y1="90" x2="430" y2="90" />
    <line class="line" x1="30" y1="100" x2="430" y2="100" />
    <line class="line" x1="30" y1="110" x2="430" y2="110" />
  </g >
  <g fill="#4c4c4c" font-family="sans-serif" font-size="4" text-anchor="end">
    <text class="grad" x="26" y="12">0.0</text>
    <text class="grad" x="26" y="22">0.0</text>
    <text class="grad" x="26" y="32">0.0</text>
    <text class="grad" x="26" y="42">0.0</text>
    <text class="grad" x="26" y="52">0.0</text>
    <text class="grad" x="26" y="62">0.0</text>
    <text class="grad" x="26" y="72">0.0</text>
    <text class="grad" x="26" y="82">0.0</text>
    <text class="grad" x="26" y="92">0.0</text>
    <text class="grad" x="26" y="102">0.0</text>
    <text class="grad" x="26" y="112">0.0</text>
  </g>

  <g stroke = "#a1a1a1" stroke-width="1">
    <line x1="30" y1="0" x2="30" y2="120" />
    <line x1="30" y1="120" x2="430" y2="120" />
  </g>

  <g fill="#4c4c4c" font-family="sans-serif" font-size="5" text-anchor="start" writing-mode="tb">
    <text class="time" x="31" y="122">3:00</text>
    <text class="time" x="31" y="122">4:00</text>
    <text class="time" x="31" y="122">5:00</text>
    <text class="time" x="31" y="122">6:00</text>
    <text class="time" x="31" y="122">7:00</text>
    <text class="time" x="31" y="122">8:00</text>
    <text class="time" x="31" y="122">9:00</text>
    <text class="time" x="31" y="122">10:00</text>
    <text class="time" x="31" y="122">11:00</text>
    <text class="time" x="31" y="122">12:00</text>
    <text class="time" x="31" y="122">13:00</text>
    <text class="time" x="31" y="122">14:00</text>
    <text class="time" x="31" y="122">15:00</text>
    <text class="time" x="31" y="122">16:00</text>
    <text class="time" x="31" y="122">17:00</text>
    <text class="time" x="31" y="122">18:00</text>
    <text class="time" x="31" y="122">19:00</text>
    <text class="time" x="31" y="122">20:00</text>
    <text class="time" x="31" y="122">21:00</text>
    <text class="time" x="31" y="122">22:00</text>
    <text class="time" x="31" y="122">23:00</text>
  </g>



</svg>
