<?xml version="1.0" encoding="utf-8"?>
<!-- Generator: Adobe Illustrator 16.0.0, SVG Export Plug-In . SVG Version: 6.00 Build 0)  -->
<!DOCTYPE svg PUBLIC "-//W3C//DTD SVG 1.1//EN" "http://www.w3.org/Graphics/SVG/1.1/DTD/svg11.dtd">
<svg version="1.1" id="Layer_1" xmlns="http://www.w3.org/2000/svg" xmlns:xlink="http://www.w3.org/1999/xlink" x="0px" y="0px"
	 width="2888.37px" height="544.327px" viewBox="0 0 2888.37 544.327" enable-background="new 0 0 2888.37 544.327"
	 xml:space="preserve">
<g>
	<defs>
		<rect id="SVGID_1_" width="2888.373" height="544.327"/>
	</defs>
	<clipPath id="SVGID_2_">
		<use xlink:href="#SVGID_1_"  overflow="visible"/>
	</clipPath>
	
		<linearGradient id="SVGID_3_" gradientUnits="userSpaceOnUse" x1="4.882813e-004" y1="544.3271" x2="1" y2="544.3271" gradientTransform="matrix(2888.3701 0 0 -2888.3701 0 1572490.625)">
		<stop  offset="0" style="stop-color:#58C2AF"/>
		<stop  offset="1" style="stop-color:#CE4F9D"/>
	</linearGradient>
	<path clip-path="url(#SVGID_2_)" fill="url(#SVGID_3_)" d="M0,542.098h515.398l0.013,0.001c0.036,0.002,13.842,0.729,35.759,0.729
		c60.263,0.015,181.597-5.552,243.425-46.8c70.938-47.291,188.871-130.732,359.768-130.731c32.923,0,67.812,3.097,104.706,10.144
		c39.155,7.479,70.745,10.598,96.78,10.598c125.519,0.058,122.058-72.556,215.913-79.066
		c112.909-7.694,166.583,5.113,251.058-46.083c64.521-39.063,82.709-67.808,112.076-67.886c9.099,0,19.193,2.796,31.987,8.888
		c36.174,17.227,92.005,40.223,156.58,40.222c31.479,0,65.035-5.462,99.423-19.72c60.162-24.945,112.818-39.838,169.459-39.837
		c42.379,0,86.975,8.337,138.596,27.009c12.961,4.688,24.474,6.801,34.879,6.801c85.95,0.253,97.679-145.117,223.785-181.939
		c80.241-23.146,97.541-31.329,97.27-32.632c-0.003,0-0.811-0.293-2.499-0.293c-2.843-0.001-6.783,0.568-6.79,0.567l-0.143-0.99
		c0.012-0.001,3.974-0.576,6.933-0.577c1.664,0.112,3.173-0.106,3.499,1.293c-0.559,3.138-17.543,9.993-97.989,33.592
		c-125.51,36.374-136.853,181.726-224.065,181.979c-10.541,0-22.172-2.141-35.22-6.861c-51.538-18.641-96.009-26.949-138.255-26.949
		c-56.46,0-108.97,14.84-169.075,39.761c-34.518,14.313-68.213,19.796-99.807,19.796c-64.813-0.001-120.784-23.07-157.01-40.319
		c-12.721-6.058-22.671-8.792-31.558-8.791c-28.564-0.077-46.942,28.54-111.559,67.741
		c-84.756,51.368-138.775,38.534-251.507,46.225c-93.049,6.233-89.894,79.012-215.981,79.068c-26.115,0-57.766-3.127-96.968-10.615
		c-36.833-7.035-71.657-10.126-104.518-10.126c-170.562,0.002-288.259,83.26-359.213,130.564
		c-62.277,41.487-183.636,46.952-243.979,46.967l0,0c-21.939,0-35.804-0.729-35.811-0.73l0.026-0.499v0.5H0V542.098z"/>
</g>
</svg>
